<svg version="1.1" xmlns="http://www.w3.org/2000/svg" xmlns:xlink="http://www.w3.org/1999/xlink" width="107.79148" height="181.25103" viewBox="0,0,107.79148,181.25103"><g transform="translate(-193.09098,-57.91667)"><g data-paper-data="{&quot;isPaintingLayer&quot;:true}" fill-rule="nonzero" stroke="#000000" stroke-linejoin="miter" stroke-miterlimit="10" stroke-dasharray="" stroke-dashoffset="0" style="mix-blend-mode: normal"><path d="M231.85518,239.16769v-48.70799h27.79919v48.70799z" fill="#630000" stroke-width="0" stroke-linecap="butt"/><path d="M193.5,191l107,1l-49,-113z" fill="#50ff91" stroke-width="0.5" stroke-linecap="round"/><path d="M226.41667,169.66667c0,-2.94552 2.38781,-5.33333 5.33333,-5.33333c2.94552,0 5.33333,2.38781 5.33333,5.33333c0,2.94552 -2.38781,5.33333 -5.33333,5.33333c-2.94552,0 -5.33333,-2.38781 -5.33333,-5.33333z" fill="#ff0000" stroke-width="0.5" stroke-linecap="butt"/><path d="M251.25,155.08333c0,-3.54383 2.87284,-6.41667 6.41667,-6.41667c3.54383,0 6.41667,2.87284 6.41667,6.41667c0,3.54383 -2.87284,6.41667 -6.41667,6.41667c-3.54383,0 -6.41667,-2.87284 -6.41667,-6.41667z" fill="#ff0000" stroke-width="0.5" stroke-linecap="butt"/><path d="M271.75,177.5c0,-2.48528 2.01472,-4.5 4.5,-4.5c2.48528,0 4.5,2.01472 4.5,4.5c0,2.48528 -2.01472,4.5 -4.5,4.5c-2.48528,0 -4.5,-2.01472 -4.5,-4.5z" fill="#ff0000" stroke-width="0.5" stroke-linecap="butt"/><path d="M236.91667,138.41667c0,-2.16312 1.75355,-3.91667 3.91667,-3.91667c2.16312,0 3.91667,1.75355 3.91667,3.91667c0,2.16312 -1.75355,3.91667 -3.91667,3.91667c-2.16312,0 -3.91667,-1.75355 -3.91667,-3.91667z" fill="#00ff21" stroke-width="0.5" stroke-linecap="butt"/><path d="M255.58333,139.33333c0,-3.22166 2.61167,-5.83333 5.83333,-5.83333c3.22166,0 5.83333,2.61167 5.83333,5.83333c0,3.22166 -2.61167,5.83333 -5.83333,5.83333c-3.22166,0 -5.83333,-2.61167 -5.83333,-5.83333z" fill="#00ff21" stroke-width="0.5" stroke-linecap="butt"/><path d="M235.08333,74.41667c0,-8.97463 7.27537,-16.25 16.25,-16.25c8.97463,0 16.25,7.27537 16.25,16.25c0,8.97463 -7.27537,16.25 -16.25,16.25c-8.97463,0 -16.25,-7.27537 -16.25,-16.25z" fill="#ffd200" stroke-width="0.5" stroke-linecap="butt"/></g></g></svg>